<?xml version="1.0" encoding="UTF-8"?>
<svg width="549px" height="116px" viewBox="0 0 549 116" version="1.1" xmlns="http://www.w3.org/2000/svg" xmlns:xlink="http://www.w3.org/1999/xlink">
    <!-- Generator: Sketch 52.4 (67378) - http://www.bohemiancoding.com/sketch -->
    <title>Logo</title>
    <desc>Created with Sketch.</desc>
    <g id="Page-1" stroke="none" stroke-width="1" fill="none" fill-rule="evenodd">
        <g id="Logo-blue" transform="translate(-66.000000, -42.000000)" fill="#0667D0">
            <g id="Logo" transform="translate(66.000000, 42.000000)">
                <path d="M31.616,73.248 L49.088,23.64 C49.296001,23.0853306 49.6599974,22.5133363 50.18,21.924 C50.7000026,21.3346637 51.4799948,21.04 52.52,21.04 L60.424,21.04 C61.1866705,21.04 61.8453306,21.3173306 62.4,21.872 C62.9546694,22.4266694 63.232,23.0853295 63.232,23.848 L63.232,24.212 C63.232,24.3160005 63.1626674,24.5413316 63.024,24.888 L39.728,90.304 C39.3119979,91.4826726 38.8266694,92.3666637 38.272,92.956 C37.7173306,93.5453363 36.8853389,93.84 35.776,93.84 L27.456,93.84 C26.3466611,93.84 25.5146694,93.5453363 24.96,92.956 C24.4053306,92.3666637 23.9200021,91.4826726 23.504,90.304 L0.208,24.888 C0.06933264,24.5413316 0,24.3160005 0,24.212 L0,23.848 C0,23.0853295 0.27733056,22.4266694 0.832,21.872 C1.38666944,21.3173306 2.04532952,21.04 2.808,21.04 L10.712,21.04 C11.7520052,21.04 12.5319974,21.3346637 13.052,21.924 C13.5720026,22.5133363 13.935999,23.0853306 14.144,23.64 L31.616,73.248 Z M104.936,21.04 C113.325375,21.04 119.842643,23.0159802 124.488,26.968 C129.133357,30.9200198 131.456,36.7092952 131.456,44.336 C131.456,51.9627048 129.133357,57.7866466 124.488,61.808 C119.842643,65.8293534 113.325375,67.84 104.936,67.84 L88.296,67.84 L88.296,91.032 C88.296,91.7946705 88.0186694,92.4533306 87.464,93.008 C86.9093306,93.5626694 86.2506705,93.84 85.488,93.84 L77.064,93.84 C76.3013295,93.84 75.6426694,93.5626694 75.088,93.008 C74.5333306,92.4533306 74.256,91.7946705 74.256,91.032 L74.256,23.848 C74.256,23.0853295 74.5333306,22.4266694 75.088,21.872 C75.6426694,21.3173306 76.3013295,21.04 77.064,21.04 L104.936,21.04 Z M88.296,54.84 L104.416,54.84 C108.36802,54.84 111.522655,54.0600078 113.88,52.5 C116.237345,50.9399922 117.416,48.2186861 117.416,44.336 C117.416,40.4533139 116.237345,37.7666741 113.88,36.276 C111.522655,34.7853259 108.36802,34.04 104.416,34.04 L88.296,34.04 L88.296,54.84 Z M167.752,20 C172.397357,20 176.487982,20.6239938 180.024,21.872 C183.560018,23.1200062 186.506655,24.6799906 188.864,26.552 C191.221345,28.4240094 193.006661,30.4866554 194.22,32.74 C195.433339,34.9933446 196.109333,37.1253233 196.248,39.136 C196.317334,39.9680042 196.057336,40.6439974 195.468,41.164 C194.878664,41.6840026 194.20267,41.944 193.44,41.944 L186.16,41.944 C184.981327,41.944 184.097336,41.7186689 183.508,41.268 C182.918664,40.8173311 182.381336,40.2106705 181.896,39.448 C180.855995,37.714658 179.278677,36.2066731 177.164,34.924 C175.049323,33.6413269 171.912021,33 167.752,33 C165.949324,33 164.233341,33.1906648 162.604,33.572 C160.974659,33.9533352 159.553339,34.5079964 158.34,35.236 C157.126661,35.9640036 156.173337,36.8479948 155.48,37.888 C154.786663,38.9280052 154.44,40.1066601 154.44,41.424 C154.44,43.0186746 154.76933,44.3186616 155.428,45.324 C156.08667,46.3293384 157.195992,47.1959964 158.756,47.924 C160.316008,48.6520036 162.378654,49.3279969 164.944,49.952 C167.509346,50.5760031 170.698648,51.3039958 174.512,52.136 C178.672021,53.0373378 182.259985,54.0946606 185.276,55.308 C188.292015,56.5213394 190.753324,57.9773248 192.66,59.676 C194.566676,61.3746752 195.987995,63.3333222 196.924,65.552 C197.860005,67.7706778 198.328,70.3013191 198.328,73.144 C198.328,76.2640156 197.634674,79.1586533 196.248,81.828 C194.861326,84.4973467 192.885346,86.7853238 190.32,88.692 C187.754654,90.5986762 184.600019,92.1066611 180.856,93.216 C177.111981,94.3253389 172.917357,94.88 168.272,94.88 C164.389314,94.88 160.680018,94.4120047 157.144,93.476 C153.607982,92.5399953 150.47068,91.1880088 147.732,89.42 C144.99332,87.6519912 142.792008,85.5200125 141.128,83.024 C139.463992,80.5279875 138.528001,77.7546819 138.32,74.704 C138.250666,73.8719958 138.510664,73.1960026 139.1,72.676 C139.689336,72.1559974 140.36533,71.896 141.128,71.896 L148.408,71.896 C149.586673,71.896 150.487997,72.1039979 151.112,72.52 C151.736003,72.9360021 152.255998,73.5599958 152.672,74.392 C153.157336,75.2933378 153.746663,76.1946622 154.44,77.096 C155.133337,77.9973378 156.069327,78.7946632 157.248,79.488 C158.426673,80.1813368 159.899991,80.7533311 161.668,81.204 C163.436009,81.6546689 165.63732,81.88 168.272,81.88 C170.35201,81.88 172.362657,81.7240016 174.304,81.412 C176.245343,81.0999984 177.943993,80.5800036 179.4,79.852 C180.856007,79.1239964 182.034662,78.222672 182.936,77.148 C183.837338,76.073328 184.288,74.7386746 184.288,73.144 C184.288,71.618659 183.802672,70.3706715 182.832,69.4 C181.861328,68.4293285 180.38801,67.5973368 178.412,66.904 C176.43599,66.2106632 173.992015,65.5520031 171.08,64.928 C168.167985,64.3039969 164.805352,63.5066715 160.992,62.536 C157.525316,61.7039958 154.492013,60.7160057 151.892,59.572 C149.291987,58.4279943 147.142675,57.0240083 145.444,55.36 C143.745325,53.6959917 142.480004,51.7373446 141.648,49.484 C140.815996,47.2306554 140.4,44.5440156 140.4,41.424 C140.4,38.3039844 141.093326,35.4266798 142.48,32.792 C143.866674,30.1573202 145.773321,27.9040094 148.2,26.032 C150.626679,24.1599906 153.521317,22.686672 156.884,21.612 C160.246683,20.537328 163.869314,20 167.752,20 Z" id="VPS"/>
                <path d="M382.496,21 C387.626692,21 392.081314,21.6759932 395.86,23.028 C399.638686,24.3800068 402.793321,26.3039875 405.324,28.8 C407.854679,31.2960125 409.795993,34.3119823 411.148,37.848 C412.500007,41.3840177 413.314665,45.3359782 413.592,49.704 C413.869335,54.8346923 413.869335,59.9653077 413.592,65.096 C413.314665,69.4640218 412.500007,73.4159823 411.148,76.952 C409.795993,80.4880177 407.872012,83.5039875 405.376,86 C402.879988,88.4960125 399.777352,90.4199932 396.068,91.772 C392.358648,93.1240068 388.008025,93.8 383.016,93.8 L356.808,93.8 C356.04533,93.8 355.386669,93.5226694 354.832,92.968 C354.277331,92.4133306 354,91.7546705 354,90.992 L354,23.808 C354,23.0453295 354.277331,22.3866694 354.832,21.832 C355.386669,21.2773306 356.04533,21 356.808,21 L382.496,21 Z M399.552,49.704 C399.413333,47.4853222 398.980004,45.4226762 398.252,43.516 C397.523996,41.6093238 396.44934,39.9453404 395.028,38.524 C393.60666,37.1026596 391.821344,35.9933373 389.672,35.196 C387.522656,34.3986627 384.957348,34 381.976,34 L368.04,34 L368.04,80.8 L382.496,80.8 C385.338681,80.8 387.79999,80.4013373 389.88,79.604 C391.96001,78.8066627 393.693326,77.7146736 395.08,76.328 C396.466674,74.9413264 397.523996,73.277343 398.252,71.336 C398.980004,69.394657 399.413333,67.3146778 399.552,65.096 C399.829335,59.9653077 399.829335,54.8346923 399.552,49.704 Z M459.872,21 C460.981339,21 461.813331,21.2946637 462.368,21.884 C462.922669,22.4733363 463.407998,23.3573274 463.824,24.536 L489.304,90.264 C489.373334,90.472001 489.408,90.7146653 489.408,90.992 C489.408,91.7546705 489.130669,92.4133306 488.576,92.968 C488.021331,93.5226694 487.36267,93.8 486.6,93.8 L479.112,93.8 C477.725326,93.8 476.754669,93.5053363 476.2,92.916 C475.645331,92.3266637 475.264001,91.7546694 475.056,91.2 L470.584,79.656 L437.72,79.656 L433.248,91.2 C433.039999,91.7546694 432.658669,92.3266637 432.104,92.916 C431.549331,93.5053363 430.578674,93.8 429.192,93.8 L421.704,93.8 C420.94133,93.8 420.282669,93.5226694 419.728,92.968 C419.173331,92.4133306 418.896,91.7546705 418.896,90.992 C418.896,90.7146653 418.930666,90.472001 419,90.264 L444.48,24.536 C444.896002,23.3573274 445.381331,22.4733363 445.936,21.884 C446.490669,21.2946637 447.322661,21 448.432,21 L459.872,21 Z M465.592,66.656 L454.152,37.016 L442.712,66.656 L465.592,66.656 Z M546.192,21 C546.95467,21 547.613331,21.2773306 548.168,21.832 C548.722669,22.3866694 549,23.0453295 549,23.808 C549,24.1546684 548.930667,24.4666653 548.792,24.744 L524.144,68.112 L524.144,90.992 C524.144,91.7546705 523.866669,92.4133306 523.312,92.968 C522.757331,93.5226694 522.09867,93.8 521.336,93.8 L513.016,93.8 C512.25333,93.8 511.594669,93.5226694 511.04,92.968 C510.485331,92.4133306 510.208,91.7546705 510.208,90.992 L510.208,68.112 L485.56,24.744 C485.421333,24.4666653 485.352,24.1546684 485.352,23.808 C485.352,23.0453295 485.629331,22.3866694 486.184,21.832 C486.738669,21.2773306 487.39733,21 488.16,21 L495.96,21 C497.346674,21 498.386663,21.3466632 499.08,22.04 C499.773337,22.7333368 500.189333,23.2533316 500.328,23.6 L517.176,53.032 L534.024,23.6 C534.162667,23.2533316 534.578663,22.7333368 535.272,22.04 C535.965337,21.3466632 537.005326,21 538.392,21 L546.192,21 Z" id="DAY"/>
                <path d="M235.457,102.736 L317.522,102.736 L317.522,91.509 C317.522,90.4044305 318.417431,89.509 319.522,89.509 L327.979,89.509 C329.083569,89.509 329.979,90.4044305 329.979,91.509 L329.979,108.965 C329.979,112.391 327.176,115.194 323.751,115.194 L320.755,115.194 L229.228,115.194 C225.803,115.194 223,112.39 223,108.966 L223,102.736 L223,57.596 C223,54.171 225.804,51.368 229.228,51.368 L317.522,51.368 L317.522,12.457 L235.457,12.457 L235.457,23.685 C235.457,24.7895695 234.561569,25.685 233.457,25.685 L225,25.685 C223.895431,25.685 223,24.7895695 223,23.685 L223,6.228 C223,2.802 225.804,0 229.228,0 L231.509,0 L321.252,0 L323.751,0 C327.176,0 329.979,2.803 329.979,6.228 L329.979,51.368 L329.979,57.598 C329.979,61.022 327.176,63.825 323.75,63.825 L235.457,63.825 L235.457,102.736 Z" id="Combined-Shape"/>
                <path d="M274,36 L296.267,36 C299.028424,36 301.267,33.7614237 301.267,31 L301.267,31 C301.267,28.2385763 299.028424,26 296.267,26 L274,26 C271.238576,26 269,28.2385763 269,31 L269,31 C269,33.7614237 271.238576,36 274,36 Z" id="Fill-11"/>
                <path d="M258.000401,26 C255.238458,26 253,28.2384585 253,31.0004014 C253,33.7615415 255.238458,36 258.000401,36 C260.761542,36 263,33.7615415 263,31.0004014 C263,28.2384585 260.761542,26 258.000401,26" id="Fill-13"/>
                <path d="M274,89 L296.267,89 C299.028424,89 301.267,86.7614237 301.267,84 L301.267,84 C301.267,81.2385763 299.028424,79 296.267,79 L274,79 C271.238576,79 269,81.2385763 269,84 L269,84 C269,86.7614237 271.238576,89 274,89 Z" id="Fill-11"/>
                <path d="M258.000401,79 C255.238458,79 253,81.2384585 253,84.0004014 C253,86.7615415 255.238458,89 258.000401,89 C260.761542,89 263,86.7615415 263,84.0004014 C263,81.2384585 260.761542,79 258.000401,79" id="Fill-13"/>
            </g>
        </g>
    </g>
</svg>